<svg xmlns="http://www.w3.org/2000/svg" version="1.1" xmlns:xlink="http://www.w3.org/1999/xlink" xmlns:svgjs="http://svgjs.dev/svgjs" width="1500" height="1500" viewBox="0 0 1500 1500"><g transform="matrix(1,0,0,1,0,0)"><svg viewBox="0 0 280 280" data-background-color="#fdfeff" preserveAspectRatio="xMidYMid meet" height="1500" width="1500" xmlns="http://www.w3.org/2000/svg" xmlns:xlink="http://www.w3.org/1999/xlink"><g id="tight-bounds" transform="matrix(1,0,0,1,0,0)"><svg viewBox="0 0 280 280" height="280" width="280"><g><svg viewBox="0 0 280 280" height="280" width="280"><g><svg viewBox="0 0 280 280" height="280" width="280"><g id="textblocktransform"><svg viewBox="0 0 280 280" height="280" width="280" id="textblock"><g><svg viewBox="0 0 280 280" height="280" width="280"><g transform="matrix(1,0,0,1,74.00336708925556,83.37032314725465)"><svg viewBox="0 0 131.99326582148888 113.2593537054907" height="113.2593537054907" width="131.99326582148888"><g id="icon-0"><svg xmlns="http://www.w3.org/2000/svg" xmlns:xlink="http://www.w3.org/1999/xlink" version="1.1" x="0" y="0" viewBox="9.534 17.606 78.806 67.62100000000001" enable-background="new 0 0 100 100" xml:space="preserve" height="113.2593537054907" width="131.99326582148888" class="icon-jxe-0" data-fill-palette-color="accent" id="jxe-0"><polygon points="79.545,50.58 62.084,50.58 62.084,64.834 41.903,64.834 36.763,84.877 59.682,85.227 62.551,74.041 65.42,85.227   88.34,84.877 " fill="#f8fafc" data-fill-palette-color="accent"></polygon><path d="M58.615 17.606H47.692A8.494 8.494 0 0 1 30.808 17.606H19.844V17.63L9.534 24.094 19.845 34.405V61.32H58.616V34.443L68.966 24.094z" fill="#f8fafc" data-fill-palette-color="accent"></path></svg></g></svg></g><g id="text-0"><path d="M28.048 112.424v0c-0.156 0.401-0.443 0.592-0.861 0.575-0.416-0.025-0.884-0.138-1.404-0.341v0c-0.871-0.338-1.776-0.748-2.715-1.227-0.941-0.474-1.862-0.943-2.762-1.409v0l-17.936-9.328 1.16-3.097c0.369-1.025 0.71-1.697 1.022-2.015 0.308-0.328 0.735-0.454 1.282-0.378v0l22.24 2.313-0.823 1.898-15.36-15.845c-0.569-0.596-0.927-1.42-1.073-2.473-0.146-1.052 0.021-2.199 0.503-3.439v0c0.192-0.495 0.456-0.829 0.79-1.002 0.338-0.164 0.827-0.079 1.469 0.257v0l23.439 12.007-1.158 2.979c-0.124 0.32-0.421 0.489-0.89 0.509-0.463 0.022-1.055-0.107-1.775-0.387v0c-1.015-0.394-2.103-0.853-3.263-1.376-1.166-0.525-2.27-1.062-3.311-1.611v0l-11.215-5.937 0.238-0.167 8.587 8.94c1.746 1.818 3.125 3.28 4.137 4.388 1.012 1.107 1.751 1.971 2.217 2.592 0.472 0.623 0.748 1.109 0.829 1.458 0.083 0.342 0.066 0.664-0.051 0.965v0c-0.124 0.32-0.297 0.559-0.517 0.718-0.218 0.153-0.574 0.206-1.068 0.159v0l-21.108-1.831 0.09-0.343 9.219 4.783c1.876 0.981 3.402 1.686 4.577 2.113 1.175 0.428 2.103 0.695 2.783 0.801 0.684 0.114 1.226 0.177 1.625 0.188 0.393 0.009 0.737 0.07 1.032 0.184v0c0.276 0.107 0.446 0.346 0.511 0.718 0.074 0.368 0.087 0.798 0.039 1.292-0.048 0.494-0.12 0.959-0.219 1.397-0.102 0.429-0.195 0.753-0.28 0.972z" fill="#f8fafc" data-fill-palette-color="primary"></path><path d="M70.211 51.244v0c-2.081 1.649-4.143 2.716-6.185 3.202-2.041 0.477-4.012 0.332-5.915-0.434-1.897-0.77-3.653-2.175-5.268-4.213v0c-1.486-1.876-2.559-3.83-3.218-5.864-0.669-2.035-0.917-4.059-0.746-6.073 0.167-2.019 0.764-3.95 1.791-5.793 1.028-1.852 2.49-3.53 4.387-5.033v0c1.517-1.202 2.834-1.949 3.949-2.241 1.11-0.288 2.037 0.037 2.779 0.975v0c0.397 0.501 0.666 0.982 0.809 1.443 0.147 0.467 0.075 0.815-0.214 1.045v0c-0.211 0.167-0.479 0.277-0.806 0.33-0.332 0.057-0.699 0.13-1.102 0.217v0c-0.701 0.144-1.454 0.308-2.26 0.492-0.805 0.175-1.634 0.6-2.488 1.276v0c-1.333 1.056-2.203 2.41-2.61 4.062-0.411 1.646-0.336 3.44 0.224 5.38 0.559 1.95 1.631 3.926 3.218 5.929v0c1.469 1.855 2.972 3.036 4.506 3.543 1.544 0.509 3.198 0.421 4.961-0.264 1.764-0.686 3.707-1.87 5.831-3.553v0l-7.162-11.409 2.505-1.985c0.416-0.33 0.767-0.449 1.054-0.359 0.296 0.092 0.665 0.417 1.107 0.975v0c0.1 0.126 0.2 0.253 0.301 0.38 0.1 0.126 0.188 0.259 0.262 0.396v0l5.416 8.831c0.401 0.669 0.704 1.295 0.909 1.879 0.205 0.584 0.125 1.072-0.242 1.465v0c-0.989 1.058-1.968 2.035-2.938 2.932-0.966 0.903-1.918 1.725-2.855 2.469z" fill="#f8fafc" data-fill-palette-color="primary"></path><path d="M119.788 29.185l-3.14 0.597c-0.416 0.079-0.769-0.158-1.059-0.713-0.297-0.553-0.512-1.182-0.646-1.889v0c-0.134-0.707-0.238-1.505-0.311-2.394-0.074-0.896-0.166-2.117-0.275-3.663v0l-1.144-15.209-5.034 2.137c-0.3 0.112-0.559 0.209-0.776 0.291-0.21 0.081-0.368 0.132-0.474 0.151v0c-0.291 0.055-0.516 0.002-0.677-0.159-0.167-0.16-0.262-0.371-0.284-0.633v0c-0.098-0.659-0.116-1.278-0.055-1.858 0.068-0.581 0.2-1.071 0.398-1.471 0.19-0.406 0.443-0.638 0.76-0.699v0l8.42-1.599c2.008-0.381 3.572-0.719 4.693-1.014 1.122-0.288 1.958-0.519 2.507-0.692 0.549-0.173 0.969-0.287 1.259-0.341v0c0.258-0.049 0.449-0.031 0.575 0.055 0.124 0.079 0.23 0.274 0.316 0.586v0c0.126 0.517 0.157 1.079 0.095 1.686-0.056 0.606-0.184 1.137-0.386 1.592-0.201 0.456-0.443 0.71-0.727 0.764v0c-0.185 0.035-0.465 0.057-0.839 0.067-0.376 0.003-0.806 0.023-1.292 0.061v0l-3.813 0.19z" fill="#f8fafc" data-fill-palette-color="primary"></path><path d="M165.413 30.191v0c-0.461-0.124-0.738-0.502-0.833-1.133-0.094-0.631-0.048-1.291 0.138-1.979v0c0.27-0.999 0.827-2.597 1.669-4.792v0l7.064-18.501 5.928 1.601c1.817 0.491 3.267 0.847 4.349 1.07 1.088 0.224 1.916 0.382 2.483 0.472 0.569 0.084 0.98 0.16 1.234 0.228v0c0.286 0.077 0.471 0.176 0.557 0.297 0.094 0.116 0.088 0.369-0.017 0.758v0c-0.124 0.461-0.347 0.937-0.667 1.428-0.327 0.49-0.692 0.886-1.094 1.188-0.397 0.311-0.787 0.414-1.17 0.311v0c-0.26-0.07-0.674-0.224-1.244-0.462-0.57-0.237-1.21-0.508-1.922-0.811v0l-4.837-2.006-6.357 16.697c-0.197 0.525-0.369 1.056-0.514 1.595-0.145 0.539-0.252 1.088-0.32 1.648v0l8.672 0.607c0.487 0.027 0.898 0.051 1.234 0.072 0.342 0.023 0.565 0.048 0.669 0.076v0c0.305 0.082 0.409 0.302 0.313 0.659v0c-0.173 0.642-0.461 1.268-0.862 1.877-0.395 0.611-0.847 1.087-1.358 1.43-0.504 0.344-1.038 0.44-1.602 0.288v0l-1.149-0.31c-2.875-0.776-5.154-1.308-6.838-1.596-1.682-0.294-2.858-0.531-3.526-0.712zM175.722 19.397l-4.954-1.264 1.305-2.823 1.85 0.5c1.103 0.298 2.152 0.539 3.146 0.724 0.994 0.185 1.836 0.329 2.526 0.431 0.688 0.109 1.119 0.187 1.295 0.235v0c0.208 0.056 0.349 0.153 0.422 0.292 0.072 0.145 0.08 0.321 0.025 0.528v0c-0.103 0.383-0.467 0.71-1.09 0.98-0.625 0.277-1.355 0.452-2.189 0.527-0.836 0.081-1.615 0.037-2.336-0.13z" fill="#f8fafc" data-fill-palette-color="primary"></path><path d="M222.744 61.753v0c-0.517-0.461-0.756-1.38-0.717-2.758 0.03-1.378 0.27-2.996 0.72-4.855 0.45-1.859 1.012-3.789 1.687-5.79v0c0.076-0.247 0.154-0.506 0.233-0.777 0.08-0.262 0.21-0.493 0.389-0.694v0c0.192-0.216 0.396-0.309 0.612-0.278 0.221 0.035 0.421 0.114 0.6 0.237v0c1.573 0.942 3.174 1.409 4.801 1.401 1.632-0.013 3.014-0.655 4.146-1.925v0c0.635-0.713 1.052-1.489 1.251-2.329 0.195-0.835 0.055-1.77-0.419-2.804-0.473-1.025-1.395-2.148-2.766-3.368v0l-0.113-0.101-18.491 16.801-2.417-2.153c-0.336-0.3-0.432-0.673-0.286-1.119 0.146-0.437 0.458-0.924 0.937-1.461v0c0.353-0.397 0.781-0.816 1.284-1.26v0l17.392-15.687c0.963 0.678 1.896 1.378 2.799 2.102 0.908 0.719 1.789 1.458 2.642 2.218v0c1.446 1.288 2.559 2.635 3.34 4.043 0.776 1.403 1.117 2.809 1.022 4.219-0.1 1.406-0.742 2.773-1.927 4.103v0c-0.832 0.934-1.757 1.604-2.776 2.01-1.019 0.406-2.077 0.594-3.174 0.562-1.092-0.027-2.167-0.211-3.224-0.55-1.052-0.334-2.037-0.766-2.953-1.293v0l1.569-1.276c-0.584 2.01-0.995 3.8-1.233 5.37-0.238 1.561-0.361 2.866-0.367 3.914-0.006 1.048 0.024 1.813 0.09 2.294v0c0.162 0.819 0.288 1.405 0.38 1.757 0.097 0.356 0.067 0.622-0.09 0.797v0c-0.161 0.181-0.45 0.252-0.866 0.215-0.416-0.028-0.893-0.12-1.43-0.275-0.533-0.16-1.042-0.356-1.526-0.59-0.485-0.234-0.858-0.467-1.119-0.7z" fill="#f8fafc" data-fill-palette-color="primary"></path><path d="M247.353 98.931l-1.156-3.024c-0.161-0.421-0.074-0.796 0.261-1.125 0.331-0.321 0.832-0.61 1.504-0.866v0c0.496-0.19 1.069-0.366 1.719-0.528v0l22.644-5.97 2.647 6.922c1.169 3.058 1.534 5.538 1.096 7.44-0.439 1.902-1.838 3.305-4.2 4.207v0c-1.438 0.55-2.879 0.723-4.324 0.52-1.445-0.203-2.798-0.654-4.058-1.352-1.266-0.696-2.358-1.538-3.276-2.526-0.917-0.988-1.571-1.99-1.959-3.007v0c-0.103-0.27-0.132-0.608-0.086-1.015 0.042-0.398 0.157-0.765 0.345-1.103 0.179-0.342 0.406-0.566 0.682-0.671v0c0.27-0.103 0.495-0.089 0.676 0.044 0.178 0.126 0.318 0.285 0.419 0.476v0c0.647 1.034 1.437 1.933 2.371 2.699 0.933 0.766 1.984 1.274 3.153 1.526 1.162 0.254 2.387 0.135 3.673-0.357v0c1.118-0.427 1.885-1.027 2.303-1.799 0.418-0.771 0.557-1.714 0.42-2.826-0.144-1.111-0.505-2.423-1.084-3.936v0z" fill="#f8fafc" data-fill-palette-color="primary"></path><path d="M2.344 144.465c0-5.856 4.748-10.604 10.604-10.604 5.856 0 10.604 4.748 10.604 10.604 0 5.856-4.748 10.604-10.604 10.604-5.856 0-10.604-4.748-10.604-10.604z" fill="#f8fafc" data-fill-palette-color="primary"></path><path d="M256.448 144.465c0-5.856 4.748-10.604 10.604-10.604 5.856 0 10.604 4.748 10.604 10.604 0 5.856-4.748 10.604-10.604 10.604-5.856 0-10.604-4.748-10.604-10.604z" fill="#f8fafc" data-fill-palette-color="primary"></path></g><g id="text-1"><path d="M8.484 184.022v0c-0.15-0.389-0.063-0.714 0.26-0.976 0.315-0.266 0.73-0.498 1.244-0.697v0c0.853-0.33 1.778-0.629 2.777-0.9 1.002-0.279 1.986-0.548 2.953-0.806v0l19.203-5.107 1.211 3.023c0.41 0.987 0.607 1.701 0.589 2.14-0.011 0.437-0.237 0.812-0.678 1.127v0l-17.689 13.051-0.659-1.929 21.651 1.341c0.807 0.056 1.614 0.418 2.42 1.086 0.806 0.669 1.444 1.611 1.914 2.828v0c0.189 0.489 0.217 0.907 0.084 1.253-0.133 0.347-0.543 0.61-1.23 0.789v0l-24.981 6.8-1.13-2.925c-0.124-0.32-0.024-0.639 0.3-0.959 0.323-0.32 0.839-0.616 1.547-0.89v0c0.997-0.385 2.093-0.776 3.287-1.173 1.197-0.39 2.354-0.733 3.473-1.029v0l12.073-3.108-0.054 0.28-12.171-0.81c-2.47-0.163-4.437-0.311-5.901-0.444-1.473-0.137-2.586-0.276-3.339-0.417-0.754-0.141-1.273-0.311-1.56-0.511-0.286-0.199-0.485-0.443-0.596-0.732v0c-0.124-0.32-0.16-0.609-0.108-0.866 0.052-0.258 0.274-0.531 0.667-0.82v0l16.543-12.662 0.165 0.314-9.864 2.644c-2.01 0.524-3.585 1.018-4.725 1.48-1.132 0.466-1.984 0.889-2.558 1.27-0.57 0.372-1 0.685-1.29 0.942-0.299 0.252-0.592 0.434-0.881 0.545v0c-0.27 0.104-0.552 0.044-0.848-0.18-0.293-0.218-0.587-0.522-0.882-0.913-0.289-0.393-0.542-0.778-0.76-1.155-0.22-0.383-0.373-0.685-0.457-0.904z" fill="#f8fafc" data-fill-palette-color="secondary"></path><path d="M56.741 254.174v0c-2.041-1.624-3.521-3.359-4.439-5.207-0.918-1.847-1.221-3.767-0.907-5.759 0.31-1.987 1.262-3.983 2.856-5.987v0c1.465-1.841 3.099-3.307 4.903-4.397 1.8-1.085 3.683-1.773 5.649-2.064 1.967-0.291 3.949-0.148 5.948 0.428 2.003 0.571 3.932 1.595 5.789 3.072v0c1.494 1.189 2.504 2.284 3.029 3.286 0.52 0.998 0.414 1.957-0.318 2.878v0c-0.389 0.489-0.79 0.858-1.202 1.106-0.408 0.243-0.756 0.249-1.045 0.018v0c-0.2-0.159-0.363-0.392-0.489-0.698-0.13-0.301-0.28-0.635-0.451-1.003v0c-0.298-0.641-0.625-1.326-0.981-2.056-0.346-0.731-0.94-1.431-1.782-2.1v0c-1.31-1.042-2.798-1.573-4.465-1.594-1.663-0.026-3.367 0.448-5.113 1.421-1.741 0.968-3.392 2.434-4.953 4.396v0c-1.448 1.82-2.244 3.523-2.389 5.109-0.14 1.59 0.313 3.153 1.359 4.689 1.046 1.536 2.613 3.135 4.701 4.796v0l9.341-9.409 2.454 1.953c0.41 0.326 0.604 0.639 0.58 0.938-0.023 0.299-0.255 0.725-0.694 1.278v0c-0.1 0.126-0.199 0.25-0.295 0.371-0.096 0.121-0.205 0.236-0.327 0.345v0l-7.243 7.161c-0.553 0.522-1.086 0.949-1.598 1.28-0.508 0.326-0.993 0.357-1.453 0.094v0c-1.234-0.716-2.39-1.433-3.467-2.153-1.078-0.729-2.077-1.459-2.998-2.192z" fill="#f8fafc" data-fill-palette-color="secondary"></path><path d="M115.74 280l-3.08-0.589c-0.409-0.078-0.652-0.422-0.727-1.032-0.067-0.615-0.034-1.269 0.099-1.963v0c0.133-0.693 0.327-1.46 0.583-2.3 0.25-0.842 0.61-1.991 1.08-3.449v0l4.451-14.311-5.374 0.132c-0.319-0.013-0.591-0.021-0.817-0.023-0.225-0.002-0.391-0.013-0.496-0.033v0c-0.277-0.053-0.465-0.181-0.563-0.385-0.091-0.202-0.099-0.43-0.024-0.682v0c0.149-0.635 0.358-1.208 0.626-1.718 0.269-0.51 0.564-0.912 0.888-1.206 0.324-0.301 0.642-0.421 0.952-0.362v0l8.27 1.582c1.981 0.379 3.536 0.638 4.666 0.779 1.131 0.134 1.98 0.221 2.547 0.261 0.559 0.045 0.981 0.095 1.265 0.149v0c0.258 0.049 0.426 0.133 0.506 0.251 0.085 0.126 0.112 0.343 0.081 0.652v0c-0.072 0.52-0.248 1.048-0.528 1.583-0.272 0.53-0.582 0.967-0.929 1.311-0.348 0.351-0.66 0.5-0.937 0.447v0c-0.178-0.034-0.443-0.119-0.793-0.255-0.344-0.134-0.742-0.272-1.194-0.413v0l-3.57-1.196z" fill="#f8fafc" data-fill-palette-color="secondary"></path><path d="M170.958 278.955v0c-0.454 0.123-0.877-0.063-1.268-0.556-0.389-0.487-0.676-1.071-0.859-1.753v0c-0.266-0.986-0.585-2.62-0.958-4.901v0l-3.16-19.21 5.832-1.574c1.791-0.484 3.201-0.896 4.23-1.236 1.027-0.347 1.805-0.626 2.333-0.839 0.528-0.212 0.918-0.352 1.171-0.42v0c0.273-0.074 0.48-0.081 0.621-0.022 0.135 0.061 0.253 0.28 0.354 0.657v0c0.123 0.454 0.168 0.971 0.137 1.55-0.033 0.573-0.144 1.09-0.333 1.552-0.19 0.455-0.474 0.734-0.85 0.836v0c-0.253 0.068-0.679 0.142-1.278 0.219-0.603 0.086-1.282 0.176-2.037 0.268v0l-5.1 0.687 2.854 17.34c0.096 0.538 0.217 1.073 0.36 1.606 0.144 0.532 0.322 1.051 0.535 1.558v0l7.671-3.774c0.428-0.22 0.792-0.405 1.093-0.556 0.294-0.149 0.493-0.238 0.597-0.265v0c0.305-0.082 0.506 0.055 0.602 0.411v0c0.17 0.63 0.236 1.301 0.199 2.015-0.044 0.715-0.194 1.344-0.451 1.887-0.257 0.543-0.665 0.89-1.223 1.04v0l-1.13 0.305c-2.83 0.764-5.032 1.439-6.608 2.024-1.567 0.59-2.679 0.974-3.334 1.151zM174.362 264.678l-4.819 1.374-0.299-3.042 1.82-0.492c1.084-0.293 2.095-0.607 3.035-0.944 0.941-0.331 1.729-0.623 2.363-0.879 0.634-0.255 1.039-0.406 1.215-0.453v0c0.201-0.054 0.369-0.037 0.505 0.052 0.127 0.084 0.218 0.227 0.272 0.428v0c0.103 0.383-0.044 0.844-0.441 1.383-0.391 0.537-0.922 1.046-1.593 1.526-0.671 0.481-1.357 0.829-2.058 1.047z" fill="#f8fafc" data-fill-palette-color="secondary"></path><path d="M236.541 242.644v0c-0.506 0.452-1.43 0.583-2.772 0.392-1.337-0.185-2.889-0.602-4.657-1.249-1.768-0.648-3.591-1.413-5.469-2.296v0c-0.237-0.104-0.481-0.211-0.731-0.32-0.251-0.109-0.461-0.259-0.632-0.45v0c-0.192-0.216-0.261-0.429-0.206-0.64 0.059-0.206 0.158-0.389 0.295-0.547v0c1.096-1.438 1.731-2.951 1.907-4.541 0.176-1.59-0.294-3.009-1.408-4.258v0c-0.627-0.702-1.339-1.197-2.137-1.485-0.798-0.288-1.726-0.257-2.783 0.092-1.058 0.349-2.259 1.124-3.603 2.324v0l-0.112 0.101 14.33 19.944-2.37 2.115c-0.331 0.295-0.703 0.348-1.116 0.158-0.413-0.19-0.854-0.548-1.324-1.074v0c-0.349-0.391-0.713-0.855-1.093-1.391v0l-13.376-18.755c0.772-0.861 1.56-1.694 2.363-2.501 0.803-0.807 1.625-1.586 2.468-2.338v0c1.419-1.267 2.86-2.202 4.322-2.804 1.462-0.603 2.874-0.777 4.236-0.524 1.366 0.258 2.631 1.04 3.795 2.343v0c0.819 0.918 1.371 1.899 1.654 2.944 0.279 1.039 0.343 2.09 0.193 3.153-0.151 1.072-0.448 2.103-0.89 3.091-0.447 0.994-0.982 1.908-1.605 2.745v0l-1.076-1.675c1.902 0.789 3.606 1.39 5.111 1.803 1.5 0.409 2.761 0.676 3.782 0.8 1.026 0.12 1.778 0.175 2.255 0.164v0c0.818-0.063 1.404-0.123 1.759-0.179 0.355-0.056 0.612 0.004 0.769 0.18v0c0.157 0.176 0.195 0.466 0.115 0.87-0.08 0.405-0.225 0.859-0.435 1.361-0.214 0.507-0.463 0.985-0.745 1.436-0.287 0.446-0.559 0.782-0.815 1.011z" fill="#f8fafc" data-fill-palette-color="secondary"></path><path d="M266.758 197.093l-1.129 2.969c-0.158 0.415-0.464 0.633-0.917 0.654-0.456 0.028-1.015-0.084-1.675-0.334v0c-0.49-0.186-1.026-0.433-1.606-0.74v0l-20.526-10.448 2.591-6.814c1.142-3.003 2.5-5.062 4.074-6.175 1.565-1.109 3.507-1.223 5.825-0.342v0c1.42 0.54 2.595 1.357 3.524 2.451 0.923 1.092 1.618 2.309 2.085 3.652 0.47 1.337 0.719 2.668 0.746 3.994 0.03 1.32-0.146 2.483-0.528 3.489v0c-0.103 0.27-0.301 0.536-0.595 0.799-0.296 0.269-0.624 0.468-0.982 0.597-0.356 0.123-0.669 0.134-0.939 0.031v0c-0.264-0.1-0.42-0.257-0.469-0.469-0.042-0.21-0.039-0.418 0.01-0.622v0c0.198-1.183 0.205-2.364 0.019-3.542-0.181-1.169-0.617-2.227-1.307-3.172-0.688-0.952-1.667-1.669-2.936-2.152v0c-1.1-0.418-2.054-0.479-2.864-0.183-0.81 0.296-1.528 0.897-2.153 1.803-0.625 0.906-1.22 2.103-1.787 3.592v0z" fill="#f8fafc" data-fill-palette-color="secondary"></path></g></svg></g></svg></g></svg></g></svg></g><defs></defs></svg><rect width="280" height="280" fill="none" stroke="none" visibility="hidden"></rect></g></svg></g></svg>