<?xml version="1.0" encoding="UTF-8"?>
<svg version="1.1" xmlns="http://www.w3.org/2000/svg" width="451" height="155">
<path d="M0 0 C9.50852745 46.74771215 9.50852745 46.74771215 12 66 C7.05 66 2.1 66 -3 66 C-3.81369064 61.95856973 -4.62599634 57.91686946 -5.4375 53.875 C-5.66759766 52.73289063 -5.89769531 51.59078125 -6.13476562 50.4140625 C-6.46831055 48.75117187 -6.46831055 48.75117187 -6.80859375 47.0546875 C-7.11494751 45.53077393 -7.11494751 45.53077393 -7.42749023 43.97607422 C-8.00173184 40.99099738 -8.5129683 38.0004282 -9 35 C-10.32 35 -11.64 35 -13 35 C-13.37286133 35.90355225 -13.74572266 36.80710449 -14.12988281 37.73803711 C-15.51615466 41.08601173 -16.92223136 44.42535761 -18.33447266 47.76245117 C-18.94311049 49.20841235 -19.5463399 50.65666239 -20.14404297 52.10717773 C-21.00379948 54.19098229 -21.88262537 56.26580054 -22.765625 58.33984375 C-23.02933899 58.99089584 -23.29305298 59.64194794 -23.5647583 60.31272888 C-24.35253906 62.13256836 -24.35253906 62.13256836 -26 65 C-30 66 -30 66 -44 66 C-50.435 51.15 -50.435 51.15 -57 36 C-58.98 36.495 -58.98 36.495 -61 37 C-62.65 46.24 -64.3 55.48 -66 65 C-69.54988771 65.88747193 -72.14180778 66.10545467 -75.75 66.0625 C-76.6771582 66.0514624 -77.60431641 66.0404248 -78.55957031 66.02905273 C-79.36491211 66.01946533 -80.17025391 66.00987793 -81 66 C-80.45985993 57.53758725 -79.30345252 49.34073646 -77.71484375 41.015625 C-77.3840255 39.24321442 -77.3840255 39.24321442 -77.04652405 37.43499756 C-76.34911688 33.70558875 -75.64345673 29.97779883 -74.9375 26.25 C-74.45973723 23.70322797 -73.98251855 21.15635381 -73.50585938 18.609375 C-72.3435219 12.40505236 -71.17378636 6.20216639 -70 0 C-65.05 0 -60.1 0 -55 0 C-54.53625977 1.10400146 -54.07251953 2.20800293 -53.59472656 3.34545898 C-51.85867853 7.47768666 -50.12140966 11.60940017 -48.38378906 15.7409668 C-47.63476275 17.52240427 -46.88605876 19.30397732 -46.13769531 21.08569336 C-45.05620593 23.66035909 -43.9735225 26.23452 -42.890625 28.80859375 C-42.56128967 29.59334579 -42.23195435 30.37809784 -41.89263916 31.18663025 C-39.66071935 36.48770318 -37.35419303 41.75211543 -35 47 C-34.75610031 46.41340103 -34.51220062 45.82680206 -34.26091003 45.22242737 C-31.72700097 39.13419892 -29.17794301 33.05248049 -26.61987305 26.97436523 C-25.66640007 24.70322414 -24.71684106 22.43043583 -23.77124023 20.15600586 C-22.41367603 16.89258934 -21.04228137 13.63529859 -19.66796875 10.37890625 C-19.24597702 9.35599991 -18.82398529 8.33309357 -18.38920593 7.27919006 C-17.98901749 6.33829025 -17.58882904 5.39739044 -17.17651367 4.42797852 C-16.82787766 3.59524918 -16.47924164 2.76251984 -16.12004089 1.90455627 C-13.10643403 -3.21988506 -4.91196183 -1.06341442 0 0 Z M-60 28 C-59 31 -59 31 -59 31 Z " fill="#FAFCF9" transform="translate(100,53)"/>
<path d="M0 0 C1.28648437 -0.01675781 2.57296875 -0.03351562 3.8984375 -0.05078125 C10.35548583 0.57867944 14.50678177 3.39351711 18.625 8.3125 C19.75379585 11.07804983 20.4837103 13.73164236 21.1875 16.625 C21.47870357 18.33521028 21.47870357 18.33521028 22.625 19.3125 C22.69721561 26.85180977 21.15582247 32.43217988 16.0859375 38.00390625 C11.9147393 41.95606893 8.32059308 43.55308759 2.625 44.3125 C1.635 43.6525 0.645 42.9925 -0.375 42.3125 C-0.705 42.6425 -1.035 42.9725 -1.375 43.3125 C-6.49467492 44.06172072 -9.43605238 42.52328512 -13.546875 39.73828125 C-17.59020753 36.58482746 -19.75930766 33.11165393 -21.375 28.3125 C-22.21260123 20.70591213 -22.19643502 13.55374411 -17.375 7.3125 C-12.05693345 1.76692259 -7.61607435 0.02280262 0 0 Z M-7.453125 10.72265625 C-11.31527542 13.91756524 -12.22864916 16.94655884 -12.75 21.8125 C-12.3143448 25.87861519 -11.76865287 27.97589297 -9.375 31.3125 C-5.5015203 34.33533318 -2.17791903 36.52460812 2.8125 35.9375 C6.18114516 33.99117169 8.80300047 32.0001186 11.625 29.3125 C11.625 28.6525 11.625 27.9925 11.625 27.3125 C7.665 26.9825 3.705 26.6525 -0.375 26.3125 C-0.705 23.6725 -1.035 21.0325 -1.375 18.3125 C2.585 18.3125 6.545 18.3125 10.625 18.3125 C10.955 16.9925 11.285 15.6725 11.625 14.3125 C9.19076737 10.81990535 5.81646656 8.89743417 1.8515625 7.53125 C-1.897912 7.16288058 -4.37310574 8.72064373 -7.453125 10.72265625 Z " fill="#FDFCFD" transform="translate(226.375,63.6875)"/>
<path d="M0 0 C4.18726294 -0.11679952 8.37410301 -0.18745327 12.5625 -0.25 C14.33463867 -0.30027344 14.33463867 -0.30027344 16.14257812 -0.3515625 C23.01033687 -0.42851218 27.42894118 -0.15579718 33 4 C33 4.66 33 5.32 33 6 C33.66 6.33 34.32 6.66 35 7 C36.50622394 10.54495129 37.54045508 14.26041021 36.375 18.01171875 C34.42068193 21.53101809 31.8589176 24.21949153 29 27 C29.58910156 27.90363281 30.17820312 28.80726562 30.78515625 29.73828125 C31.54481022 30.92934365 32.30389543 32.12076895 33.0625 33.3125 C33.45244141 33.90740234 33.84238281 34.50230469 34.24414062 35.11523438 C35.24211495 36.69609635 36.12868696 38.34594712 37 40 C36.67 40.99 36.34 41.98 36 43 C30.95065626 43.69646121 30.95065626 43.69646121 28 43 C25.44367333 40.67039853 23.76109852 37.95710936 22 35 C21.38125 34.05125 20.7625 33.1025 20.125 32.125 C19 30 19 30 19 28 C15.7 28 12.4 28 9 28 C9.01160156 28.99902344 9.02320313 29.99804688 9.03515625 31.02734375 C9.04417969 32.31769531 9.05320312 33.60804687 9.0625 34.9375 C9.07410156 36.22527344 9.08570313 37.51304688 9.09765625 38.83984375 C9 42 9 42 8 43 C4.5 43.125 4.5 43.125 1 43 C-1.32193701 40.67806299 -0.52499497 35.25809704 -0.6875 32.125 C-0.74744141 31.20074219 -0.80738281 30.27648437 -0.86914062 29.32421875 C-0.91619141 28.43605469 -0.96324219 27.54789063 -1.01171875 26.6328125 C-1.08072388 25.40908936 -1.08072388 25.40908936 -1.15112305 24.16064453 C-1 22 -1 22 1 19 C3.33837891 18.56762695 3.33837891 18.56762695 6.2265625 18.48828125 C7.7734375 18.43510742 7.7734375 18.43510742 9.3515625 18.38085938 C10.43179687 18.35830078 11.51203125 18.33574219 12.625 18.3125 C14.25695312 18.26125977 14.25695312 18.26125977 15.921875 18.20898438 C18.61448063 18.12631666 21.30675291 18.05722913 24 18 C25.12516085 16.16715557 25.12516085 16.16715557 26 14 C25.67 13.01 25.34 12.02 25 11 C22.15065878 9.91963627 19.29435447 9.83179379 16.26953125 9.71875 C15.38458984 9.68136719 14.49964844 9.64398438 13.58789062 9.60546875 C11.7259283 9.53471156 9.86394882 9.46440461 8.00195312 9.39453125 C6.6803418 9.33845703 6.6803418 9.33845703 5.33203125 9.28125 C4.52483643 9.25095703 3.7176416 9.22066406 2.88598633 9.18945312 C1 9 1 9 0 8 C-0.14115161 5.32941149 -0.04247107 2.67567762 0 0 Z " fill="#FDFCFD" transform="translate(346,64)"/>
<path d="M0 0 C1.485 0.99 1.485 0.99 3 2 C2.835 2.804375 2.67 3.60875 2.5 4.4375 C1.96808161 6.7284443 1.96808161 6.7284443 2 8 C2.66 7.67 3.32 7.34 4 7 C4.12375 7.804375 4.2475 8.60875 4.375 9.4375 C4.58125 10.283125 4.7875 11.12875 5 12 C5.66 12.33 6.32 12.66 7 13 C7.66 11.68 8.32 10.36 9 9 C8.41196203 12.02419525 7.77321882 15.01758453 7 18 C7.66 17.34 8.32 16.68 9 16 C11 19 11 19 11 22 C10.40380859 22.02835938 9.80761719 22.05671875 9.19335938 22.0859375 C6.33611415 23.27666837 5.81549776 24.88571852 4.6673584 27.66162109 C4.41619263 28.30953613 4.16502686 28.95745117 3.90625 29.625 C3.6328479 30.28709473 3.3594458 30.94918945 3.07775879 31.63134766 C2.20388466 33.74860558 1.34975983 35.87295845 0.5 38 C-0.61823798 40.79907167 -1.75582429 43.58902727 -2.90625 46.375 C-3.15741577 47.02291504 -3.40858154 47.67083008 -3.6673584 48.33837891 C-5.50061376 52.7707139 -5.50061376 52.7707139 -7.97753906 53.90795898 C-11.07459496 54.04890419 -14.14924308 54.09121071 -17.25 54.0625 C-18.51328125 54.05347656 -19.7765625 54.04445312 -21.078125 54.03515625 C-22.04234375 54.02355469 -23.0065625 54.01195312 -24 54 C-25.19942605 51.40074504 -26.38472821 48.79654493 -27.5625 46.1875 C-27.90474609 45.44951172 -28.24699219 44.71152344 -28.59960938 43.95117188 C-28.91865234 43.23896484 -29.23769531 42.52675781 -29.56640625 41.79296875 C-29.86490479 41.1383667 -30.16340332 40.48376465 -30.47094727 39.80932617 C-31 38 -31 38 -30 35 C-30 35.66 -30 36.32 -30 37 C-26.9254644 36.2236068 -26.9254644 36.2236068 -25 34 C-23.35 34.66 -21.7 35.32 -20 36 C-20.350625 35.401875 -20.70125 34.80375 -21.0625 34.1875 C-22 32 -22 32 -21 29 C-20.34 30.32 -19.68 31.64 -19 33 C-18.34 32.34 -17.68 31.68 -17 31 C-16.34 32.32 -15.68 33.64 -15 35 C-10.05 23.45 -5.1 11.9 0 0 Z " fill="#F2F5F1" transform="translate(80,65)"/>
<path d="M0 0 C0.02467467 5.65999023 0.04284788 11.31994932 0.05493164 16.97998047 C0.05996787 18.90641831 0.06679712 20.83285231 0.07543945 22.75927734 C0.08753608 25.52442368 0.09323533 28.28951958 0.09765625 31.0546875 C0.10281754 31.9193161 0.10797882 32.7839447 0.11329651 33.67477417 C0.11387171 39.77225659 0.11387171 39.77225659 -1 42 C-7.15234375 42.09765625 -7.15234375 42.09765625 -9 42 C-10.65079442 40.34920558 -10.22549447 38.36263821 -10.31640625 36.08984375 C-10.35830078 35.10048828 -10.40019531 34.11113281 -10.44335938 33.09179688 C-10.48267578 32.05087891 -10.52199219 31.00996094 -10.5625 29.9375 C-10.60568359 28.89271484 -10.64886719 27.84792969 -10.69335938 26.77148438 C-10.79981225 24.18113116 -10.9018276 21.59067814 -11 19 C-13.91261983 21.87448405 -16.64151525 24.64846904 -19 28 C-21.93193569 27.66290244 -23.58438048 27.38781237 -25.7734375 25.34521484 C-26.30195313 24.64090332 -26.83046875 23.9365918 -27.375 23.2109375 C-27.96796875 22.43363281 -28.5609375 21.65632813 -29.171875 20.85546875 C-29.77515625 20.03691406 -30.3784375 19.21835938 -31 18.375 C-31.60328125 17.57964844 -32.2065625 16.78429687 -32.828125 15.96484375 C-34.0126986 14.39657131 -35.18745741 12.82082999 -36.3515625 11.23730469 C-37.41217919 9.79780657 -38.48917344 8.37015908 -39.5859375 6.95800781 C-40.80181591 5.36174755 -41.91256019 3.68638127 -43 2 C-42.67 1.01 -42.34 0.02 -42 -1 C-36.55209309 -2.14230306 -36.55209309 -2.14230306 -33 -1 C-29.1143151 2.98489388 -26.12199043 7.40849045 -23 12 C-22.34 12.66 -21.68 13.32 -21 14 C-19.89591797 12.39318359 -19.89591797 12.39318359 -18.76953125 10.75390625 C-17.78460143 9.35624394 -16.79888292 7.95913718 -15.8125 6.5625 C-15.32974609 5.85544922 -14.84699219 5.14839844 -14.34960938 4.41992188 C-10.70056972 -0.69852972 -10.70056972 -0.69852972 -7.44921875 -2.09765625 C-4.60425704 -1.98422077 -2.60476696 -1.10309022 0 0 Z " fill="#FEFDFD" transform="translate(194,65)"/>
<path d="M0 0 C4.02058602 -0.11686443 8.04073082 -0.18747388 12.0625 -0.25 C13.19623047 -0.28351562 14.32996094 -0.31703125 15.49804688 -0.3515625 C22.23101779 -0.43008111 26.60813533 -0.19367252 32 4 C34.87941855 8.82999241 35.97693947 13.47486453 35 19 C33.6792699 22.55745042 31.89554669 25.2782161 28.90625 27.6875 C24.92055117 29.48749302 21.50128025 29.32852048 17.1875 29.1875 C16.39923828 29.17396484 15.61097656 29.16042969 14.79882812 29.14648438 C12.86558831 29.11133456 10.93270318 29.05753361 9 29 C9.01160156 29.92683594 9.02320313 30.85367188 9.03515625 31.80859375 C9.04417969 33.00613281 9.05320312 34.20367187 9.0625 35.4375 C9.07410156 36.63246094 9.08570313 37.82742187 9.09765625 39.05859375 C9 42 9 42 8 43 C5.32941149 43.14115161 2.67567762 43.04247107 0 43 C-1.28195532 39.15413405 -1.18415545 35.50677403 -1.1875 31.5 C-1.19974609 30.72785156 -1.21199219 29.95570312 -1.22460938 29.16015625 C-1.23476991 25.2517352 -1.21572048 23.32358072 1 20 C3.24658203 19.56762695 3.24658203 19.56762695 6.0078125 19.48828125 C7.48701172 19.43510742 7.48701172 19.43510742 8.99609375 19.38085938 C10.02863281 19.35830078 11.06117188 19.33574219 12.125 19.3125 C13.68541016 19.26125977 13.68541016 19.26125977 15.27734375 19.20898438 C17.85145507 19.12632942 20.42521829 19.05723845 23 19 C24.87543354 15.13236554 24.87543354 15.13236554 24 11 C21.59458071 9.79729036 19.89633409 9.79683337 17.2109375 9.68359375 C16.26992188 9.64169922 15.32890625 9.59980469 14.359375 9.55664062 C13.37453125 9.51732422 12.3896875 9.47800781 11.375 9.4375 C10.38242187 9.39431641 9.38984375 9.35113281 8.3671875 9.30664062 C5.91160162 9.20038931 3.45591297 9.09835036 1 9 C-0.66670026 5.47051709 -1.13583456 3.71727674 0 0 Z " fill="#FDFDFD" transform="translate(394,64)"/>
<path d="M0 0 C0.33 -0.33 0.66 -0.66 1 -1 C2.62257544 -1.0991657 4.24939831 -1.13079777 5.875 -1.1328125 C6.85984375 -1.13410156 7.8446875 -1.13539062 8.859375 -1.13671875 C9.89578125 -1.13285156 10.9321875 -1.12898438 12 -1.125 C13.55460937 -1.13080078 13.55460937 -1.13080078 15.140625 -1.13671875 C16.12546875 -1.13542969 17.1103125 -1.13414063 18.125 -1.1328125 C19.03507812 -1.13168457 19.94515625 -1.13055664 20.8828125 -1.12939453 C23 -1 23 -1 24 0 C24.125 3.5 24.125 3.5 24 7 C23 8 23 8 20.27734375 8.09765625 C18.62412109 8.08025391 18.62412109 8.08025391 16.9375 8.0625 C15.83277344 8.05347656 14.72804688 8.04445313 13.58984375 8.03515625 C12.73519531 8.02355469 11.88054687 8.01195313 11 8 C11.00785522 9.38505737 11.00785522 9.38505737 11.01586914 10.7980957 C11.03291585 14.22534814 11.0454525 17.6525555 11.05493164 21.07983398 C11.05995903 22.56291413 11.06678185 24.04598933 11.07543945 25.52905273 C11.08757482 27.66130801 11.09324425 29.79349773 11.09765625 31.92578125 C11.10551147 33.85031128 11.10551147 33.85031128 11.11352539 35.8137207 C11 39 11 39 10 42 C7.03 42 4.06 42 1 42 C-0.50606515 38.98786971 -0.12160331 35.88717378 -0.09765625 32.5859375 C-0.0962413 31.85629791 -0.09482635 31.12665833 -0.09336853 30.37490845 C-0.08776531 28.04156415 -0.07521235 25.70831536 -0.0625 23.375 C-0.05748541 21.79427222 -0.05292243 20.21354293 -0.04882812 18.6328125 C-0.03779484 14.75517146 -0.02052811 10.87760193 0 7 C-0.99 7.495 -0.99 7.495 -2 8 C-3.49649362 8.12005453 -4.99874793 8.17531451 -6.5 8.1875 C-7.2940625 8.20167969 -8.088125 8.21585938 -8.90625 8.23046875 C-11 8 -11 8 -13 6 C-13.1875 2.9375 -13.1875 2.9375 -13 0 C-9.83923005 -3.16076995 -3.3417342 -2.36706172 0 0 Z " fill="#FDFDFD" transform="translate(268,65)"/>
<path d="M0 0 C1.32 0 2.64 0 4 0 C5.34473828 11.4915391 5.15314408 23.01151115 5.125 34.5625 C5.12411377 35.60181671 5.12322754 36.64113342 5.12231445 37.71194458 C5.10615539 53.82735068 4.85274361 69.90446429 4 86 C2.68 86 1.36 86 0 86 C-1.0244963 69.5368812 -1.15710369 53.09686572 -1.13037109 36.60913086 C-1.12457014 32.97897806 -1.12803551 29.34889754 -1.13394356 25.71874714 C-1.13754336 22.89899642 -1.13641507 20.07926316 -1.13381577 17.25951195 C-1.13282863 15.27077054 -1.13585426 13.28202844 -1.13894653 11.29328918 C-1.13579437 10.0999144 -1.13264221 8.90653961 -1.12939453 7.67700195 C-1.12859894 6.62559525 -1.12780334 5.57418854 -1.12698364 4.49092102 C-1 2 -1 2 0 0 Z " fill="#FEFEFE" transform="translate(132,42)"/>
<path d="M0 0 C0.66 0 1.32 0 2 0 C1.46035994 6.0085296 -0.3624286 10.88790724 -2.8125 16.375 C-3.15603516 17.19355469 -3.49957031 18.01210937 -3.85351562 18.85546875 C-4.19705078 19.63277344 -4.54058594 20.41007812 -4.89453125 21.2109375 C-5.20237549 21.91524902 -5.51021973 22.61956055 -5.82739258 23.34521484 C-7 25 -7 25 -8.91577148 25.73071289 C-12.03574278 26.13382035 -15.10631353 26.09160821 -18.25 26.0625 C-19.51328125 26.05347656 -20.7765625 26.04445313 -22.078125 26.03515625 C-23.04234375 26.02355469 -24.0065625 26.01195313 -25 26 C-26.0044134 23.7101766 -27.00367612 21.4183401 -28 19.125 C-28.28617188 18.47402344 -28.57234375 17.82304688 -28.8671875 17.15234375 C-31 12.2265625 -31 12.2265625 -31 10 C-28 11 -28 11 -27 13 C-26.34 12.67 -25.68 12.34 -25 12 C-24.34 13.32 -23.68 14.64 -23 16 C-23.99 16.33 -24.98 16.66 -26 17 C-25.67 17.66 -25.34 18.32 -25 19 C-24.01 19 -23.02 19 -22 19 C-22 19.66 -22 20.32 -22 21 C-21.34 21 -20.68 21 -20 21 C-20.350625 20.401875 -20.70125 19.80375 -21.0625 19.1875 C-22 17 -22 17 -21 14 C-20.67 14 -20.34 14 -20 14 C-19.67 13.34 -19.34 12.68 -19 12 C-18.34 12.66 -17.68 13.32 -17 14 C-17.375 16.625 -17.375 16.625 -18 19 C-17.34 19 -16.68 19 -16 19 C-16 19.99 -16 20.98 -16 22 C-15.34 22 -14.68 22 -14 22 C-13.67 19.69 -13.34 17.38 -13 15 C-13.66 15.66 -14.32 16.32 -15 17 C-14.34580901 11.93001981 -12.1453591 7.58009223 -10 3 C-9 6 -9 6 -9 7 C-8.01 5.35 -7.02 3.7 -6 2 C-4.75453595 4.49092811 -5.2232422 5.41080733 -6 8 C-5.01 6.02 -4.02 4.04 -3 2 C-2.34 2.33 -1.68 2.66 -1 3 C-0.67 2.01 -0.34 1.02 0 0 Z " fill="#F8FAF7" transform="translate(81,93)"/>
<path d="M0 0 C10.56 0 21.12 0 32 0 C33 7 33 7 32 9 C27.46102295 9.02465392 22.92208457 9.04283789 18.38305664 9.05493164 C16.83780234 9.0599714 15.29255284 9.0668032 13.74731445 9.07543945 C11.53074971 9.08752076 9.31424782 9.09323173 7.09765625 9.09765625 C6.05545677 9.10539818 6.05545677 9.10539818 4.99220276 9.11329651 C3.3277067 9.11349277 1.66334501 9.06189129 0 9 C-1 8 -1 8 -1.125 5.0625 C-1 2 -1 2 0 0 Z " fill="#FEFDFD" transform="translate(302,98)"/>
<path d="M0 0 C1.34888732 0.00015905 2.69778075 0.00584927 4.04663086 0.01586914 C5.10991859 0.01799156 5.10991859 0.01799156 6.19468689 0.02015686 C8.46699173 0.02577096 10.73919936 0.03832576 13.01147461 0.05102539 C14.54858257 0.05603858 16.08569206 0.0606018 17.62280273 0.06469727 C21.39823103 0.07574497 25.17358632 0.09301898 28.94897461 0.11352539 C29.57397461 3.48852539 29.57397461 3.48852539 29.94897461 7.11352539 C27.11637886 9.94612114 25.22202801 9.371908 21.26147461 9.37915039 C20.6031665 9.38106384 19.9448584 9.38297729 19.26660156 9.38494873 C17.87458921 9.38630989 16.48256414 9.38261822 15.09057617 9.37426758 C12.95714872 9.36356639 10.8245633 9.37416445 8.69116211 9.38696289 C7.33959775 9.38564128 5.98803391 9.38307886 4.63647461 9.37915039 C3.4028418 9.37689453 2.16920898 9.37463867 0.89819336 9.37231445 C-2.05102539 9.11352539 -2.05102539 9.11352539 -4.05102539 7.11352539 C-4.23852539 4.05102539 -4.23852539 4.05102539 -4.05102539 1.11352539 C-3.05102539 0.11352539 -3.05102539 0.11352539 0 0 Z " fill="#FEFDFD" transform="translate(305.051025390625,63.886474609375)"/>
<path d="M0 0 C1.30066406 -0.00128906 2.60132813 -0.00257812 3.94140625 -0.00390625 C4.96258545 -0.00076416 4.96258545 -0.00076416 6.00439453 0.00244141 C8.08503515 0.0077901 10.16545989 0.0024957 12.24609375 -0.00390625 C14.19708984 -0.00197266 14.19708984 -0.00197266 16.1875 0 C17.39083984 0.00112793 18.59417969 0.00225586 19.83398438 0.00341797 C22.59375 0.1328125 22.59375 0.1328125 23.59375 1.1328125 C23.71875 4.6328125 23.71875 4.6328125 23.59375 8.1328125 C22.59375 9.1328125 22.59375 9.1328125 19.81811523 9.24633789 C18.60841064 9.24110107 17.39870605 9.23586426 16.15234375 9.23046875 C14.84716797 9.22724609 13.54199219 9.22402344 12.19726562 9.22070312 C10.8085931 9.21234651 9.41992123 9.20388155 8.03125 9.1953125 C6.63867344 9.19029916 5.24609519 9.18573597 3.85351562 9.18164062 C0.4335513 9.16980684 -2.98632844 9.1533213 -6.40625 9.1328125 C-7.77248674 6.40033902 -7.534676 4.15082348 -7.40625 1.1328125 C-5.54910943 -0.72432807 -2.48117951 0.00232569 0 0 Z " fill="#FDFDFD" transform="translate(308.40625,80.8671875)"/>
<path d="M0 0 C6.57692308 0.57692308 6.57692308 0.57692308 8 2 C8.09900199 3.97712807 8.12970773 5.95790038 8.125 7.9375 C8.12757813 9.01902344 8.13015625 10.10054687 8.1328125 11.21484375 C8 14 8 14 7 16 C4.36 16 1.72 16 -1 16 C-2.36271133 13.27457733 -2.16923601 11.03912726 -2.1875 8 C-2.20167969 6.9275 -2.21585938 5.855 -2.23046875 4.75 C-2 2 -2 2 0 0 Z " fill="#FEFEFE" transform="translate(153,91)"/>
<path d="M0 0 C2 2 2 2 2 5 C1.34 5 0.68 5 0 5 C0 5.66 0 6.32 0 7 C0.99 7 1.98 7 3 7 C3.66 6.34 4.32 5.68 5 5 C5.66 5.33 6.32 5.66 7 6 C6.67 7.65 6.34 9.3 6 11 C5.67 10.34 5.34 9.68 5 9 C4.34 9 3.68 9 3 9 C2.67 10.65 2.34 12.3 2 14 C1.34 13.34 0.68 12.68 0 12 C-1.32 14.64 -2.64 17.28 -4 20 C-5 17 -5 17 -4 14 C-4.99 15.98 -5.98 17.96 -7 20 C-8.12055703 16.63832891 -7.97585489 16.29170668 -6.6015625 13.2421875 C-6.28703125 12.53449219 -5.9725 11.82679687 -5.6484375 11.09765625 C-5.31070313 10.36417969 -4.97296875 9.63070312 -4.625 8.875 C-4.295 8.13378906 -3.965 7.39257812 -3.625 6.62890625 C-1.16998027 1.16998027 -1.16998027 1.16998027 0 0 Z " fill="#EEF2ED" transform="translate(78,84)"/>
</svg>
